Coordinates
version=1
nRows=22
nColumns=24
inDegrees=yes

Units are S.I. units (second, meters, Newtons, ...)
Angles are in degrees.

endheader
time	pelvis_tilt	pelvis_list	pelvis_rotation	pelvis_tx	pelvis_ty	pelvis_tz	hip_flexion_r	hip_adduction_r	hip_rotation_r	knee_angle_r	ankle_angle_r	subtalar_angle_r	mtp_angle_r	hip_flexion_l	hip_adduction_l	hip_rotation_l	knee_angle_l	ankle_angle_l	subtalar_angle_l	mtp_angle_l	lumbar_extension	lumbar_bending	lumbar_rotation
      0.62600000	     -0.99936513	      4.14064107	      3.92234412	     -0.79360430	      0.99810973	      0.26659247	     23.63236150	     -5.48556983	    -11.37579601	      2.39135779	      3.27385630	     -4.88768652	     -0.97080472	    -13.89827257	      5.60991952	     -1.19378417	     -5.79415430	     10.67359256	     -9.13603278	     -1.01751706	    -11.44008316	     -4.40261334	     -3.03649734
      0.63016667	     -0.55483781	      4.01149113	      4.13683958	     -0.78780446	      0.99825638	      0.26625480	     23.17786359	     -5.39615521	    -11.54288298	      1.78322187	      3.18022349	     -5.13599598	     -6.98935742	    -14.59484160	      5.35228744	     -0.85562103	     -6.06320922	     10.78944386	     -9.15863451	     -9.80497213	    -11.94972506	     -4.10684684	     -3.23359418
      0.63433333	     -0.32185947	      3.86080071	      4.09425873	     -0.78167098	      0.99792151	      0.26660246	     22.99336399	     -5.15908191	    -11.35191276	      1.14365090	      2.96756421	     -5.63259902	     -6.89432429	    -15.04608726	      5.09976499	     -1.08455420	     -6.39333349	     10.95319950	     -8.73652048	     -9.88636078	    -12.14651817	     -3.87732246	     -3.22867313
      0.63850000	     -0.03795162	      3.72515620	      4.15507351	     -0.77560730	      0.99776035	      0.26669343	     22.71840052	     -4.98512556	    -11.30839207	      0.52300238	      2.70968073	     -5.99309421	     -6.77161572	    -15.53740329	      4.85184060	     -1.09034782	     -6.73698337	     11.01171084	     -8.56252062	     -9.94122411	    -12.42587458	     -3.63000596	     -3.34518018
      0.64266667	      0.27917600	      3.58441381	      4.21709429	     -0.76952366	      0.99767200	      0.26682308	     22.38383765	     -4.79750258	    -11.26339576	     -0.06405076	      2.38845728	     -6.33573755	     -6.61624508	    -16.04722105	      4.58941803	     -1.10204192	     -7.10854813	     11.05279275	     -8.36917903	     -9.96452114	    -12.74017657	     -3.37351986	     -3.48174319
      0.64683333	     -0.02480939	      3.66958674	      4.36905297	     -0.76383090	      0.99675139	      0.26676055	     22.82118457	     -4.93128972	    -11.14148572	     -0.85459061	      2.07595973	     -6.63688794	     -6.50624050	    -15.78421834	      4.62324624	     -0.82227230	     -7.68450853	     11.01353930	     -8.48716666	     -9.96279064	    -12.40765658	     -3.41140018	     -3.70099297
      0.65100000	      0.10767675	      3.60732687	      4.46180790	     -0.75786807	      0.99646006	      0.26694859	     22.68302576	     -4.83921594	    -11.04421350	     -1.44175341	      1.64299276	     -6.97275630	     -6.38759665	    -16.01617867	      4.44725237	     -0.76366031	     -8.20225561	     11.00535487	     -8.35887582	     -9.94190460	    -12.53086094	     -3.26912221	     -3.85462860
      0.65516667	      0.26753949	      3.50028284	      4.54988184	     -0.75179515	      0.99625576	      0.26719152	     22.46999037	     -4.68676969	    -10.94353641	     -1.94217572	      1.10982641	     -7.35790266	     -6.24659483	    -16.25930075	      4.21396793	     -0.75839108	     -8.75903981	     10.98474416	     -8.18644949	     -9.89811546	    -12.66959530	     -3.07478211	     -4.01455368
      0.65933333	      0.41270657	      3.38468397	      4.61850690	     -0.74564153	      0.99607051	      0.26747590	     22.25519942	     -4.51616862	    -10.83126026	     -2.40364504	      0.49232453	     -7.76844734	     -6.09960547	    -16.47495430	      3.97615412	     -0.77803755	     -9.33380941	     10.93411757	     -8.00591600	     -9.83436447	    -12.77109675	     -2.87302028	     -4.14352507
      0.66350000	      0.54355744	      3.24639745	      4.66713747	     -0.73943237	      0.99590217	      0.26785954	     22.03274890	     -4.30673489	    -10.69214608	     -2.80673591	     -0.20181383	     -8.20159191	     -5.94407136	    -16.65017586	      3.71217250	     -0.84672962	     -9.95768918	     10.86041548	     -7.79474185	     -9.75056802	    -12.85655074	     -2.65907291	     -4.25384652
      0.66766667	      0.67095985	      3.09431498	      4.68459575	     -0.73318465	      0.99576534	      0.26833948	     21.79835838	     -4.06612499	    -10.50188195	     -3.16364836	     -0.94698461	     -8.67478112	     -5.75261424	    -16.79132582	      3.43533993	     -0.98560251	    -10.63528376	     10.74977640	     -7.56925700	     -9.62790451	    -12.93095098	     -2.43806937	     -4.33607919
      0.67183333	      0.74458991	      2.93364924	      4.59807451	     -0.72687247	      0.99552604	      0.26910293	     21.64118045	     -3.77510759	    -10.21754149	     -3.51422087	     -1.78685946	     -9.19598974	     -0.70165380	    -16.84792817	      3.15951647	     -1.33386522	    -11.36905372	     10.62143006	     -7.18900263	     -5.78910918	    -12.93612486	     -2.24949121	     -4.30804478
      0.67600000	      0.89749236	      2.76225442	      4.59224340	     -0.72059622	      0.99554014	      0.26962263	     21.35661310	     -3.50865362	    -10.03777295	     -3.80991068	     -2.63980219	     -9.69727592	     -0.70338341	    -16.98154504	      2.86925486	     -1.45886914	    -12.09888231	     10.40979219	     -7.06090561	     -5.70065067	    -13.03539921	     -2.01210731	     -4.36153078
      0.68016667	      0.93785581	      2.57501842	      4.61622375	     -0.71426389	      0.99545172	      0.27008892	     21.17865141	     -3.24974562	     -9.89787190	     -4.08818283	     -3.48378456	    -10.16278431	     -0.69215622	    -16.94227133	      2.56187097	     -1.59383335	    -12.92832397	     10.17307822	     -6.91506483	     -5.61484898	    -12.98458891	     -1.75430081	     -4.35352468
      0.68433333	      1.05828810	      2.37302066	      4.46335791	     -0.70795059	      0.99544504	      0.27103994	     20.94595499	     -2.88779430	     -9.53992214	     -4.36744872	     -4.37810731	    -10.75403377	     -0.63626362	    -16.97221741	      2.24557001	     -2.01520211	    -13.79044063	      9.94767295	     -6.53454523	     -5.38108090	    -13.04815440	     -1.53844047	     -4.30627328
      0.68850000	      1.09746964	      2.16470503	      4.35996364	     -0.70161761	      0.99540403	      0.27183589	     20.79171554	     -2.55747849	     -9.26696432	     -4.65158466	     -5.24825816	    -11.30719998	     -0.56476404	    -16.87815584	      1.92721667	     -2.34700780	    -14.71598808	      9.64744129	     -6.28867612	     -5.07043530	    -13.00260383	     -1.29970255	     -4.20882480
      0.69266667	      1.10998440	      1.93474975	      4.34189630	     -0.69526877	      0.99543500	      0.27235966	     20.64571352	     -2.25960381	     -9.15161556	     -4.93270865	     -6.03925248	    -11.73622581	     -0.52796287	    -16.71757302	      1.58453618	     -2.53128348	    -15.69908858	      9.27531190	     -6.22223112	     -4.87954415	    -12.91343999	     -1.00255981	     -4.11771052
      0.69683333	      1.15379946	      1.68995652	      4.18569589	     -0.68895189	      0.99548794	      0.27324145	     20.50849473	     -1.88595477	     -8.88729975	     -5.26033186	     -6.86044980	    -12.30494097	     -0.46738352	    -16.57001339	      1.23177082	     -2.93777091	    -16.72559349	      8.90997511	     -5.95662691	     -4.55859272	    -12.88394611	     -0.71699055	     -4.02135530
      0.70100000	      1.16509678	      1.44212498	      4.04395692	     -0.68262831	      0.99557015	      0.27406338	     20.39325116	     -1.52728106	     -8.64672000	     -5.57845502	     -7.60354303	    -12.76637214	     -0.40725647	    -16.34655045	      0.87624469	     -3.31775326	    -17.81845293	      8.47344687	     -5.77322116	     -4.18414168	    -12.80800890	     -0.43698352	     -3.84470086
      0.70516667	      1.17472042	      1.18116130	      3.68465112	     -0.67624474	      0.99558931	      0.27542725	     20.31778085	     -1.06348163	     -8.14849795	     -5.93892114	     -8.26133986	    -13.21187121	     -0.25713303	    -16.12910647	      0.52490956	     -4.01283818	    -18.92183401	      7.95942731	     -5.46017490	     -3.05828267	    -12.72065624	     -0.21050734	     -3.49711106
      0.70933333	      1.18476158	      0.94869002	      3.68300132	     -0.67000335	      0.99587774	      0.27575005	     20.19599596	     -0.82163815	     -8.19978269	     -6.30469849	     -8.85490077	    -13.34580290	     -0.24651889	    -15.82719593	      0.18410340	     -4.11361102	    -20.10156274	      7.30653970	     -5.54650107	     -2.89027424	    -12.65210221	      0.11372634	     -3.41993534
      0.71350000	      1.13353855	      0.66479463	      3.43810614	     -0.66370557	      0.99594759	      0.27684926	     20.17798743	     -0.39950069	     -7.88429139	     -6.70183958	     -9.38724335	    -13.78161447	      0.41127797	    -15.42979038	     -0.22659566	     -4.69168000	    -21.37598610	      6.67343213	     -5.39608828	      8.52000060	    -12.50247865	      0.39608852	     -3.17171336
